<svg width="29" height="24" viewBox="0 0 29 24" fill="none" xmlns="http://www.w3.org/2000/svg">
<path d="M28.7199 17.9219C28.7199 16.2413 28.2167 14.6186 27.2644 13.2291C26.5795 12.2297 25.6975 11.3997 24.6754 10.7829C25.8788 9.64335 26.6317 8.03264 26.6317 6.24837C26.6317 2.80305 23.8287 0 20.3834 0C18.3405 0 16.4267 1.01037 15.2643 2.66896C14.9689 2.62594 14.6671 2.60273 14.36 2.60273C14.0528 2.60273 13.7511 2.62602 13.4557 2.66896C12.2932 1.01037 10.3795 0 8.33658 0C4.89126 0 2.08821 2.80305 2.08821 6.24837C2.08821 8.03264 2.84114 9.64335 4.04458 10.7829C3.02241 11.3996 2.14041 12.2297 1.45557 13.229C0.503336 14.6186 0 16.2413 0 17.9219V21.3973H6.02346V24H22.6966V21.3973H28.72V17.9219H28.7199ZM20.3834 1.54216C22.9784 1.54216 25.0896 3.65335 25.0896 6.24845C25.0896 8.84355 22.9784 10.9547 20.3834 10.9547C20.3369 10.9547 20.2904 10.954 20.2439 10.9527C20.2474 10.9428 20.2503 10.9327 20.2538 10.9228C20.3342 10.695 20.4012 10.4611 20.4549 10.2222C20.4587 10.2052 20.463 10.1884 20.4666 10.1714C20.4806 10.1069 20.4928 10.0418 20.5048 9.97659C20.5104 9.94575 20.5162 9.91499 20.5214 9.88407C20.5311 9.82585 20.5399 9.76741 20.548 9.70873C20.5536 9.66794 20.5587 9.62716 20.5635 9.58629C20.5696 9.53448 20.5756 9.48259 20.5804 9.43039C20.5854 9.37711 20.5891 9.32375 20.5926 9.27032C20.5954 9.22822 20.5989 9.18627 20.6008 9.14394C20.605 9.05319 20.6074 8.96229 20.6077 8.8713C20.6077 8.8646 20.6083 8.85804 20.6083 8.85126C20.6083 8.84763 20.608 8.84401 20.608 8.84038C20.6078 8.74747 20.6051 8.6551 20.6009 8.56304C20.5997 8.53629 20.5981 8.50961 20.5965 8.48293C20.592 8.40467 20.5861 8.32679 20.5787 8.2493C20.577 8.23172 20.5756 8.21414 20.5739 8.19664C20.3409 5.9445 18.9181 4.01682 16.8655 3.12519C17.75 2.13155 19.0293 1.54216 20.3834 1.54216ZM12.7316 4.43527C12.7466 4.42979 12.7618 4.42463 12.7769 4.41923C12.8237 4.4025 12.8709 4.38661 12.9183 4.37127C12.9542 4.35978 12.9904 4.34868 13.0268 4.33804C13.0532 4.33025 13.0797 4.32277 13.1063 4.31537C13.1538 4.30234 13.2016 4.28962 13.2497 4.27797C13.606 4.19146 13.9775 4.14451 14.3598 4.14451C14.7425 4.14481 15.1141 4.19185 15.4704 4.27836C15.5183 4.28992 15.5657 4.30257 15.613 4.31552C15.64 4.323 15.667 4.33056 15.6937 4.3385C15.7296 4.34906 15.7654 4.36001 15.801 4.37135C15.849 4.38685 15.8967 4.40288 15.9441 4.41985C15.9586 4.42501 15.9732 4.42995 15.9877 4.43527C17.5616 5.01733 18.7417 6.41808 19.0088 8.118C19.0109 8.13157 19.0129 8.14521 19.0149 8.15886C19.0235 8.21646 19.0306 8.27452 19.037 8.33273C19.0393 8.35417 19.0418 8.37552 19.0439 8.39704C19.049 8.45016 19.0528 8.50367 19.0562 8.55733C19.0575 8.58031 19.0595 8.60321 19.0605 8.62627C19.0638 8.69481 19.0656 8.76374 19.0658 8.83306C19.0658 8.83907 19.0662 8.84493 19.0662 8.85095C19.0662 8.85372 19.066 8.85658 19.066 8.85935C19.0659 8.92643 19.0639 8.99305 19.0609 9.05944C19.06 9.08033 19.0591 9.10123 19.0578 9.12205C19.0542 9.1862 19.0494 9.25004 19.0433 9.31342C19.0409 9.33794 19.0376 9.36238 19.0349 9.38682C19.0302 9.42784 19.0249 9.46878 19.0192 9.50949C19.0147 9.54118 19.0103 9.57295 19.0052 9.60449C18.9974 9.65252 18.9888 9.70025 18.9795 9.74782C18.9713 9.79015 18.9622 9.83233 18.9528 9.87443C18.9472 9.8998 18.9413 9.92516 18.9353 9.95038C18.9202 10.0129 18.9037 10.0751 18.8861 10.137C18.8791 10.1616 18.8726 10.1863 18.8652 10.2107C18.8544 10.2461 18.8429 10.2813 18.8314 10.3165C18.8221 10.3446 18.8127 10.3726 18.8029 10.4005C18.7918 10.4322 18.7808 10.464 18.7691 10.4954C18.7491 10.5489 18.7281 10.6018 18.7063 10.6543C18.6966 10.6778 18.6863 10.701 18.6762 10.7243C18.6571 10.7681 18.6376 10.8116 18.6172 10.8546C18.6148 10.8597 18.6124 10.8648 18.61 10.8698C18.6027 10.8851 18.5955 10.9005 18.588 10.9157C18.5652 10.9623 18.5414 11.0083 18.517 11.054C18.5076 11.0717 18.4984 11.0897 18.4887 11.1073C18.488 11.1085 18.4874 11.1096 18.4868 11.1106C18.4601 11.1592 18.4323 11.207 18.404 11.2545C18.3927 11.2733 18.3816 11.2922 18.3702 11.3108C18.3393 11.3608 18.3076 11.4103 18.275 11.4591C18.2547 11.4894 18.2335 11.5191 18.2126 11.5489C18.1947 11.5742 18.177 11.5996 18.1587 11.6245C18.1351 11.6567 18.1109 11.6885 18.0864 11.7202C18.0698 11.7417 18.0529 11.7631 18.036 11.7844C18.0101 11.8168 17.9839 11.849 17.9573 11.8807C17.9407 11.9003 17.9236 11.9196 17.9068 11.939C17.879 11.9708 17.8513 12.0027 17.8228 12.0338C17.8058 12.0522 17.7882 12.07 17.771 12.0882C17.7246 12.1371 17.6771 12.185 17.6286 12.232C17.5999 12.2598 17.5713 12.2877 17.5418 12.3148C17.5215 12.3335 17.5006 12.3517 17.4798 12.3701C17.4461 12.4001 17.4121 12.4298 17.3774 12.4588C17.3599 12.4735 17.3421 12.4881 17.3243 12.5026C17.2824 12.5367 17.24 12.5701 17.1969 12.6028C17.1852 12.6116 17.1737 12.6207 17.1619 12.6294C16.3785 13.2118 15.4088 13.557 14.3599 13.557C13.3109 13.557 12.3411 13.2117 11.5577 12.6292C11.5461 12.6206 11.5348 12.6117 11.5233 12.603C11.48 12.5702 11.4374 12.5366 11.3954 12.5024C11.3777 12.488 11.3601 12.4735 11.3426 12.4589C11.3079 12.4297 11.2738 12.3999 11.2399 12.3698C11.2193 12.3515 11.1985 12.3334 11.1782 12.3148C11.1487 12.2876 11.12 12.2596 11.0911 12.2318C11.0425 12.1847 10.9949 12.1367 10.9483 12.0876C10.9313 12.0696 10.9139 12.0521 10.8971 12.0339C10.8685 12.0027 10.8409 11.9707 10.8131 11.9389C10.7962 11.9195 10.7792 11.9003 10.7627 11.8807C10.7359 11.849 10.7099 11.8168 10.6839 11.7845C10.667 11.7632 10.6501 11.7418 10.6334 11.7202C10.609 11.6886 10.5849 11.6568 10.5612 11.6245C10.5429 11.5996 10.5251 11.5741 10.5073 11.5487C10.4863 11.519 10.4652 11.4894 10.445 11.4592C10.4122 11.4102 10.3804 11.3605 10.3495 11.3103C10.3381 11.2919 10.3272 11.2733 10.3161 11.2548C10.2873 11.2066 10.2592 11.1581 10.2321 11.1089C10.2222 11.0907 10.2128 11.0723 10.203 11.0541C10.1786 11.0083 10.1548 10.9621 10.1319 10.9155C10.1237 10.8989 10.1158 10.8822 10.1078 10.8655C10.1066 10.863 10.1054 10.8604 10.1043 10.8579C10.0829 10.8129 10.0625 10.7674 10.0425 10.7215C10.033 10.6997 10.0234 10.6779 10.0143 10.656C9.99193 10.6024 9.97058 10.5482 9.95014 10.4937C9.93912 10.4642 9.92894 10.4344 9.91853 10.4048C9.90781 10.3743 9.89748 10.3436 9.88738 10.3128C9.87651 10.2795 9.86556 10.2462 9.85538 10.2128C9.84019 10.1627 9.82585 10.1124 9.81236 10.0617C9.80288 10.0262 9.79432 9.99032 9.7856 9.95454C9.77882 9.9264 9.77227 9.89825 9.76602 9.86996C9.75831 9.83526 9.75052 9.80064 9.74358 9.76579C9.73286 9.71151 9.72307 9.65692 9.71428 9.60202C9.7095 9.57241 9.70534 9.54273 9.7011 9.51312C9.69485 9.46925 9.68922 9.42514 9.68421 9.38089C9.68174 9.35907 9.67889 9.33724 9.67666 9.31542C9.67026 9.25042 9.6654 9.18496 9.6617 9.11927C9.66062 9.10038 9.65977 9.08149 9.65892 9.0626C9.65576 8.99236 9.65352 8.92188 9.65352 8.85095C9.65352 8.77492 9.65568 8.69944 9.65931 8.62426C9.66031 8.60383 9.66201 8.58355 9.66316 8.5632C9.66655 8.50675 9.67064 8.45047 9.67604 8.39449C9.67789 8.37498 9.68013 8.35555 9.68221 8.33612C9.68884 8.27552 9.69632 8.21522 9.70526 8.15531C9.70696 8.14367 9.70865 8.13195 9.7105 8.12031C9.97675 6.41939 11.1571 5.01771 12.7316 4.43527ZM3.6303 6.24845C3.6303 3.65343 5.74149 1.54216 8.33658 1.54216C9.69077 1.54216 10.97 2.13162 11.8545 3.12503C9.80126 4.01698 8.37814 5.94558 8.14583 8.19865C8.14421 8.21391 8.14305 8.22926 8.14159 8.2446C8.13388 8.32487 8.12779 8.40544 8.12316 8.48648C8.12177 8.51115 8.12023 8.53575 8.11907 8.5605C8.11468 8.65695 8.11167 8.75372 8.11167 8.85118C8.11167 8.94956 8.11452 9.04772 8.11915 9.14579C8.121 9.18527 8.12424 9.22436 8.12678 9.26361C8.13056 9.32005 8.13442 9.37649 8.13966 9.43278C8.14429 9.48282 8.14999 9.53255 8.15585 9.58228C8.16094 9.62561 8.16634 9.66879 8.17235 9.71197C8.18022 9.76864 8.1887 9.82508 8.19803 9.88129C8.20366 9.91468 8.20983 9.94799 8.21592 9.9813C8.22748 10.0442 8.23928 10.107 8.2527 10.1692C8.25717 10.1897 8.26226 10.2101 8.26688 10.2305C8.31924 10.462 8.38423 10.6887 8.46165 10.9098C8.46658 10.9241 8.4709 10.9385 8.47591 10.9527C8.42942 10.954 8.38285 10.9547 8.33643 10.9547C5.74149 10.9547 3.6303 8.84347 3.6303 6.24845ZM7.31626 16.0793C7.2993 16.1061 7.28311 16.1333 7.26645 16.1602C7.23122 16.2171 7.19629 16.2742 7.16252 16.3318C7.14363 16.3639 7.12543 16.3963 7.10708 16.4287C7.0767 16.4821 7.04671 16.5357 7.01756 16.5897C6.99921 16.6237 6.98117 16.6579 6.96328 16.6921C6.93521 16.7458 6.90784 16.7999 6.88101 16.8541C6.86412 16.8881 6.84732 16.9221 6.83097 16.9564C6.80368 17.0135 6.77738 17.0711 6.7514 17.1288C6.73729 17.1602 6.72279 17.1913 6.70915 17.2228C6.67908 17.2919 6.65039 17.3616 6.62225 17.4314C6.614 17.4518 6.60521 17.472 6.59719 17.4925C6.56149 17.5832 6.52733 17.6746 6.49495 17.7664C6.48755 17.7875 6.48092 17.8088 6.47359 17.8298C6.44923 17.9006 6.42548 17.9716 6.40304 18.0429C6.39279 18.0757 6.3833 18.1086 6.37343 18.1415C6.35531 18.2019 6.3375 18.2624 6.32077 18.3234C6.31083 18.3596 6.30134 18.3959 6.29186 18.4323C6.27659 18.4908 6.26194 18.5494 6.24806 18.6082C6.2392 18.6454 6.23056 18.6827 6.22231 18.72C6.20905 18.7796 6.19663 18.8394 6.18468 18.8993C6.17751 18.9353 6.17011 18.9713 6.1634 19.0075C6.1513 19.0727 6.14043 19.1383 6.12986 19.2039C6.12493 19.2347 6.11945 19.2654 6.11483 19.2963C6.10049 19.3926 6.08745 19.4892 6.07651 19.5863C6.07635 19.5875 6.07627 19.5886 6.0762 19.5898C6.06625 19.6781 6.05769 19.7665 6.05052 19.8553H1.54208V17.9219C1.54208 15.2804 3.06057 12.9091 5.43955 11.782C6.3062 12.2375 7.29136 12.4968 8.33651 12.4968C8.63876 12.4968 8.94193 12.4745 9.24279 12.4302C9.28967 12.4971 9.33732 12.5632 9.38667 12.6281C9.40332 12.65 9.42059 12.6712 9.43756 12.6928C9.48629 12.7551 9.53571 12.8167 9.58675 12.8771C9.60765 12.9019 9.62908 12.9261 9.65036 12.9505C9.69817 13.0054 9.74674 13.0596 9.7964 13.1127C9.82246 13.1407 9.84898 13.1682 9.87551 13.1958C9.92092 13.2426 9.96695 13.2887 10.0138 13.3341C10.0313 13.3511 10.0479 13.3692 10.0656 13.3861C9.99864 13.4265 9.93226 13.468 9.86649 13.5104C9.85577 13.5172 9.84528 13.5245 9.83464 13.5314C9.76887 13.5741 9.7038 13.6178 9.63934 13.6623C9.61705 13.6777 9.59485 13.6932 9.57264 13.7088C9.5152 13.7493 9.45837 13.7905 9.40201 13.8323C9.3842 13.8456 9.36616 13.8586 9.3485 13.872C9.27679 13.9262 9.20593 13.9814 9.136 14.0378C9.12073 14.0502 9.10578 14.0629 9.09051 14.0754C9.03484 14.1209 8.97971 14.1673 8.92527 14.2143C8.90415 14.2325 8.88318 14.2509 8.8622 14.2693C8.80769 14.3173 8.75387 14.3661 8.70059 14.4155C8.68672 14.4284 8.67253 14.441 8.65873 14.454C8.59334 14.5156 8.52896 14.5782 8.4655 14.642C8.449 14.6586 8.43289 14.6755 8.41654 14.6921C8.36797 14.7417 8.31993 14.7918 8.27251 14.8426C8.2537 14.8628 8.23488 14.883 8.21622 14.9035C8.16287 14.9618 8.11028 15.0208 8.05855 15.0807C8.05045 15.0901 8.04205 15.0992 8.03395 15.1087C7.97497 15.1776 7.91729 15.2477 7.86039 15.3186C7.84451 15.3383 7.82901 15.3584 7.81335 15.3784C7.77056 15.4327 7.72839 15.4876 7.6869 15.5431C7.67087 15.5645 7.65475 15.5858 7.63895 15.6074C7.58466 15.6814 7.53108 15.756 7.47903 15.832C7.42313 15.9135 7.369 15.9961 7.31626 16.0793ZM7.56554 22.458V21.3974V20.5246C7.56554 20.439 7.56716 20.3537 7.57032 20.2687C7.57132 20.2407 7.57356 20.2129 7.57495 20.185C7.57772 20.1283 7.58035 20.0715 7.58451 20.0149C7.58705 19.9806 7.59091 19.9466 7.59399 19.9124C7.59847 19.8626 7.60248 19.8127 7.60803 19.7632C7.61211 19.727 7.61743 19.691 7.62206 19.6548C7.62807 19.6077 7.6337 19.5605 7.64064 19.5136C7.64627 19.4763 7.65306 19.4393 7.65922 19.4021C7.66678 19.3569 7.6738 19.3116 7.68228 19.2666C7.68945 19.2286 7.69778 19.191 7.70556 19.1532C7.71451 19.1095 7.72307 19.0657 7.73286 19.0224C7.74149 18.9841 7.75136 18.9463 7.76062 18.9082C7.77103 18.8658 7.78097 18.8231 7.79215 18.781C7.80233 18.7427 7.81359 18.7047 7.82438 18.6667C7.8361 18.6253 7.84751 18.5838 7.86 18.5427C7.87165 18.5045 7.88445 18.4665 7.8967 18.4285C7.90981 18.3882 7.92253 18.3478 7.93634 18.3078C7.94944 18.2699 7.96355 18.2324 7.97728 18.1948C7.99177 18.1552 8.00596 18.1154 8.02115 18.0761C8.03565 18.0387 8.05107 18.0018 8.0661 17.9646C8.08191 17.9258 8.09748 17.8868 8.11399 17.8483C8.12994 17.8112 8.14675 17.7745 8.16333 17.7378C8.18037 17.7 8.19726 17.662 8.21499 17.6245C8.23234 17.5879 8.25054 17.5517 8.2685 17.5154C8.28685 17.4784 8.30497 17.4413 8.32394 17.4047C8.34268 17.3686 8.36218 17.333 8.38154 17.2973C8.40112 17.2611 8.42047 17.2249 8.44067 17.1892C8.46072 17.1537 8.48154 17.1188 8.50213 17.0837C8.52295 17.0484 8.54361 17.013 8.56512 16.978C8.58648 16.9432 8.60853 16.909 8.63051 16.8746C8.65256 16.8401 8.67445 16.8056 8.69712 16.7716C8.71979 16.7375 8.74308 16.7039 8.76636 16.6702C8.78957 16.6367 8.8127 16.6032 8.83645 16.57C8.86035 16.5367 8.88495 16.5039 8.90955 16.4709C8.93391 16.4383 8.9582 16.4057 8.9831 16.3735C9.00824 16.3411 9.03399 16.3091 9.05974 16.277C9.08527 16.2452 9.11086 16.2136 9.13693 16.1822C9.16322 16.1508 9.19005 16.1197 9.21688 16.0887C9.24364 16.0578 9.27047 16.0269 9.29784 15.9964C9.32521 15.9658 9.3532 15.9357 9.38111 15.9057C9.40903 15.8757 9.43694 15.8458 9.46539 15.8164C9.49392 15.7868 9.52299 15.7576 9.55213 15.7286C9.5812 15.6995 9.61042 15.6706 9.64003 15.642C9.66956 15.6135 9.69956 15.5855 9.7297 15.5575C9.75993 15.5294 9.79031 15.5014 9.82107 15.4738C9.85176 15.4464 9.88275 15.4193 9.91398 15.3924C9.94529 15.3653 9.97682 15.3384 10.0087 15.3119C10.0404 15.2855 10.0724 15.2595 10.1046 15.2337C10.137 15.2077 10.1697 15.1818 10.2027 15.1563C10.2354 15.1312 10.2683 15.1063 10.3014 15.0817C10.335 15.0566 10.3688 15.0319 10.4031 15.0074C10.4365 14.9834 10.4703 14.9598 10.5043 14.9364C10.5391 14.9124 10.5741 14.8887 10.6095 14.8654C10.6438 14.8427 10.6784 14.8203 10.7132 14.7982C10.7492 14.7753 10.7854 14.7527 10.8219 14.7305C10.857 14.709 10.8924 14.6878 10.9281 14.667C10.9651 14.6453 11.0024 14.624 11.0399 14.6029C11.0759 14.5827 11.1122 14.5628 11.1487 14.5432C11.1868 14.5227 11.2253 14.5025 11.264 14.4826C11.3007 14.4638 11.3376 14.4452 11.3747 14.4269C11.4039 14.4126 11.4335 14.3987 11.463 14.3847C12.3296 14.8403 13.3149 15.0995 14.36 15.0995C15.4051 15.0995 16.3904 14.8403 17.2569 14.3847C17.2862 14.3986 17.3155 14.4124 17.3445 14.4266C17.3821 14.4451 17.4194 14.4639 17.4565 14.4829C17.4948 14.5026 17.5329 14.5225 17.5707 14.5428C17.6075 14.5626 17.6441 14.5828 17.6805 14.6032C17.7176 14.6241 17.7545 14.6451 17.791 14.6665C17.8272 14.6877 17.863 14.7092 17.8987 14.7309C17.9347 14.7529 17.9704 14.7751 18.0058 14.7977C18.0412 14.8201 18.0762 14.8428 18.1109 14.8658C18.1459 14.8889 18.1805 14.9123 18.2149 14.936C18.2492 14.9597 18.2833 14.9835 18.3172 15.0077C18.351 15.0319 18.3845 15.0564 18.4178 15.0813C18.4513 15.1061 18.4845 15.1312 18.5174 15.1566C18.5501 15.1819 18.5825 15.2075 18.6147 15.2333C18.6471 15.2593 18.6793 15.2854 18.7113 15.312C18.743 15.3383 18.7743 15.3651 18.8054 15.392C18.8368 15.4191 18.868 15.4463 18.8989 15.474C18.9294 15.5013 18.9595 15.5291 18.9895 15.5569C19.0199 15.5852 19.0502 15.6135 19.0801 15.6423C19.1094 15.6706 19.1383 15.6993 19.1671 15.728C19.1964 15.7573 19.2257 15.7867 19.2545 15.8165C19.2827 15.8458 19.3105 15.8754 19.3382 15.9051C19.3664 15.9354 19.3946 15.9658 19.4222 15.9966C19.4493 16.0268 19.4759 16.0574 19.5024 16.0881C19.5295 16.1193 19.5566 16.1506 19.583 16.1824C19.609 16.2135 19.6344 16.245 19.6597 16.2765C19.6856 16.3088 19.7115 16.3409 19.7368 16.3736C19.7617 16.4056 19.7858 16.4381 19.81 16.4705C19.8347 16.5035 19.8593 16.5366 19.8834 16.5701C19.9071 16.603 19.9301 16.6365 19.9532 16.6699C19.9765 16.7036 20 16.7374 20.0227 16.7716C20.0452 16.8055 20.067 16.8397 20.0889 16.874C20.111 16.9086 20.1332 16.9431 20.1547 16.9781C20.176 17.0127 20.1965 17.0479 20.2172 17.0829C20.238 17.1182 20.259 17.1535 20.2791 17.1892C20.2992 17.2248 20.3185 17.2609 20.338 17.2968C20.3574 17.3326 20.377 17.3684 20.3958 17.4046C20.4147 17.4411 20.4328 17.4782 20.4511 17.5152C20.4691 17.5515 20.4874 17.5877 20.5047 17.6244C20.5224 17.6619 20.5393 17.6997 20.5562 17.7375C20.5729 17.7745 20.5898 17.8112 20.6057 17.8484C20.6221 17.8866 20.6375 17.9252 20.6532 17.9637C20.6685 18.0012 20.6841 18.0385 20.6986 18.0763C20.7137 18.1154 20.7278 18.155 20.7423 18.1944C20.7561 18.2321 20.7702 18.2697 20.7833 18.3077C20.7972 18.3479 20.81 18.3885 20.8231 18.429C20.8353 18.4668 20.8481 18.5046 20.8596 18.5427C20.8722 18.5838 20.8835 18.6254 20.8953 18.6668C20.9061 18.7048 20.9174 18.7427 20.9275 18.781C20.9387 18.8231 20.9487 18.8657 20.9591 18.9082C20.9684 18.9462 20.9782 18.9841 20.9868 19.0224C20.9966 19.0657 21.0051 19.1094 21.0141 19.153C21.0219 19.1909 21.0303 19.2286 21.0374 19.2666C21.0458 19.3112 21.0528 19.3562 21.0603 19.401C21.0666 19.4386 21.0735 19.4759 21.0791 19.5137C21.0861 19.5602 21.0916 19.6071 21.0976 19.6538C21.1023 19.6903 21.1077 19.7265 21.1118 19.7631C21.1174 19.8126 21.1214 19.8625 21.1259 19.9123C21.1289 19.9466 21.1328 19.9806 21.1353 20.0149C21.1396 20.0714 21.1421 20.1283 21.1449 20.1851C21.1463 20.2129 21.1485 20.2407 21.1495 20.2686C21.1527 20.3537 21.1543 20.4389 21.1543 20.5245V21.3973V22.458H7.56554ZM22.6698 19.8553C22.6547 19.6674 22.6329 19.4808 22.6053 19.2953C22.6009 19.2659 22.5957 19.2367 22.591 19.2074C22.5803 19.1403 22.5691 19.0733 22.5567 19.0065C22.5501 18.9713 22.543 18.9363 22.5359 18.9013C22.5238 18.8403 22.5112 18.7794 22.4977 18.7188C22.4895 18.6823 22.481 18.6457 22.4724 18.6093C22.4583 18.5498 22.4435 18.4905 22.4281 18.4314C22.4187 18.3955 22.4094 18.3598 22.3995 18.324C22.3827 18.2624 22.3646 18.2012 22.3463 18.1401C22.3365 18.1079 22.3273 18.0755 22.3172 18.0434C22.2945 17.971 22.2704 17.899 22.2456 17.8271C22.2387 17.8071 22.2324 17.7868 22.2253 17.7667C22.1928 17.6746 22.1586 17.583 22.1227 17.4919C22.115 17.4724 22.1066 17.4532 22.0988 17.4337C22.0703 17.3629 22.0412 17.2924 22.0107 17.2224C21.9972 17.1913 21.983 17.1606 21.9691 17.1297C21.9429 17.0714 21.9163 17.0134 21.8887 16.9557C21.8726 16.9219 21.856 16.8884 21.8394 16.8548C21.8123 16.8001 21.7846 16.7456 21.7563 16.6914C21.7386 16.6574 21.7208 16.6237 21.7026 16.59C21.6733 16.5358 21.6432 16.482 21.6127 16.4283C21.5943 16.3961 21.5762 16.3638 21.5575 16.3318C21.5236 16.2739 21.4885 16.2166 21.453 16.1594C21.4365 16.1327 21.4205 16.1058 21.4037 16.0794C21.3508 15.9962 21.2967 15.9136 21.2407 15.832C21.1886 15.7559 21.135 15.6813 21.0808 15.6073C21.065 15.5858 21.049 15.5646 21.0331 15.5434C20.9914 15.4876 20.9491 15.4326 20.9061 15.378C20.8906 15.3583 20.8753 15.3384 20.8595 15.3189C20.8026 15.2478 20.7447 15.1775 20.6855 15.1085C20.6778 15.0996 20.6699 15.0908 20.6622 15.0819C20.61 15.0215 20.557 14.962 20.5032 14.9032C20.4847 14.883 20.4662 14.8631 20.4475 14.843C20.3998 14.7919 20.3515 14.7414 20.3026 14.6916C20.2865 14.6752 20.2707 14.6586 20.2544 14.6423C20.1908 14.5785 20.1262 14.5156 20.0607 14.4539C20.0472 14.4412 20.0333 14.4288 20.0197 14.4162C19.9661 14.3664 19.912 14.3175 19.8573 14.2692C19.8364 14.2509 19.8155 14.2327 19.7945 14.2145C19.7399 14.1674 19.6848 14.121 19.629 14.0754C19.6138 14.063 19.599 14.0502 19.5837 14.0379C19.5138 13.9815 19.443 13.9263 19.3714 13.8721C19.3535 13.8586 19.3353 13.8455 19.3173 13.8322C19.2612 13.7906 19.2047 13.7495 19.1474 13.7093C19.125 13.6935 19.1026 13.6777 19.0801 13.6622C19.0162 13.6181 18.9518 13.575 18.8868 13.5327C18.8753 13.5253 18.8642 13.5176 18.8528 13.5103C18.7871 13.4681 18.7209 13.4267 18.654 13.3863C18.6712 13.3699 18.6874 13.3524 18.7045 13.3357C18.7523 13.2895 18.7992 13.2424 18.8455 13.1946C18.8713 13.1679 18.897 13.1412 18.9223 13.114C18.9728 13.0601 19.022 13.005 19.0706 12.9493C19.0912 12.9256 19.112 12.9021 19.1323 12.878C19.184 12.8168 19.2343 12.7543 19.2837 12.691C19.2999 12.6703 19.3165 12.65 19.3323 12.6291C19.3819 12.5639 19.4298 12.4974 19.4769 12.4304C19.7778 12.4745 20.0809 12.4969 20.3832 12.4969C21.4283 12.4969 22.4136 12.2377 23.2802 11.7821C25.6592 12.9092 27.1776 15.2805 27.1776 17.922V19.8553H22.6698Z" fill="#979797"/>
</svg>
