<svg width="24" height="24" viewBox="0 0 24 24" fill="none" xmlns="http://www.w3.org/2000/svg">
<path d="M23.042 7.32208C21.7767 4.37208 19.6265 2.22663 16.6519 0.957961C15.1651 0.323882 13.6075 0 11.9803 0C10.3533 0 8.80718 0.320824 7.32208 0.957961C4.37208 2.22325 2.21235 4.36733 0.944784 7.32208C0.309608 8.80239 0 10.3533 0 11.9802C0 13.6075 0.309608 15.1713 0.944784 16.6519C2.21235 19.6066 4.37235 21.7636 7.32208 23.0292C8.80745 23.6663 10.3533 23.9868 11.9803 23.9868C13.6073 23.9868 15.1651 23.6629 16.6516 23.0292C19.6263 21.7605 21.7765 19.6016 23.0421 16.6519C23.6792 15.1665 24 13.6075 24 11.9802C24 10.3533 23.6795 8.80741 23.042 7.32208ZM21.1264 17.2818C20.1844 18.8973 18.8939 20.1789 17.2686 21.1264C15.6531 22.0684 13.883 22.5435 11.9805 22.5435C10.5504 22.5435 9.18565 22.268 7.88643 21.7037C6.58726 21.1396 5.46553 20.398 4.52718 19.46C3.58882 18.5216 2.84196 17.3889 2.28349 16.0875C1.72667 14.7909 1.45682 13.4107 1.45682 11.9803C1.45682 10.0775 1.92431 8.31643 2.86102 6.70541C3.80106 5.08851 5.09184 3.80553 6.70569 2.86071C8.31925 1.91592 10.0778 1.44337 11.9803 1.44337C13.883 1.44337 15.6528 1.91871 17.2683 2.86071C18.8936 3.80831 20.1814 5.09125 21.1262 6.70537C22.0709 8.31921 22.5432 10.0775 22.5432 11.9802C22.5432 13.883 22.074 15.6561 21.1264 17.2818Z" fill="#CC6666"/>
<path d="M12.7414 11.8753V5.07809C12.7414 4.67134 12.387 4.34326 11.9802 4.34326C11.5998 4.34326 11.2585 4.67134 11.2585 5.07809V11.9802C11.2585 11.9934 11.2848 12.046 11.2848 12.0853C11.2585 12.3215 11.3243 12.5183 11.4817 12.6759L15.4053 16.5993C15.6679 16.8619 16.1533 16.8619 16.4156 16.5993C16.7174 16.2975 16.6975 15.8597 16.4156 15.5758L12.7414 11.8753Z" fill="#CC6666"/>
</svg>
