<svg width="24" height="18" viewBox="0 0 24 18" fill="none" xmlns="http://www.w3.org/2000/svg">
<path d="M21.0701 0H2.93482C1.31595 0 0 1.2969 0 2.89233V15.1077C0 16.7031 1.31595 18 2.93482 18H21.0652C22.684 18 24 16.7031 24 15.1077V2.89723C24.005 1.30179 22.689 0 21.0701 0ZM22.6642 15.1077C22.6642 15.9739 21.9491 16.6786 21.0701 16.6786H2.93482C2.05586 16.6786 1.34078 15.9739 1.34078 15.1077V2.89723C1.34078 2.03099 2.05586 1.32626 2.93482 1.32626H21.0652C21.9441 1.32626 22.6592 2.03099 22.6592 2.89723V15.1077H22.6642Z" fill="#CC6666"/>
<path d="M15.1359 8.84833L21.0056 3.66072C21.2787 3.41603 21.3035 3.00004 21.0552 2.72598C20.8069 2.45681 20.3848 2.43234 20.1068 2.67704L12.0124 9.83691L10.4333 8.44702C10.4283 8.44213 10.4233 8.43723 10.4233 8.43234C10.3886 8.39808 10.3538 8.36872 10.3141 8.33935L3.88827 2.67214C3.61018 2.42745 3.18808 2.45191 2.93979 2.72598C2.6915 3.00004 2.71633 3.41603 2.99441 3.66072L8.93358 8.89237L3.01924 14.3491C2.75109 14.5987 2.73619 15.0147 2.98945 15.2839C3.12353 15.4209 3.3023 15.4943 3.48107 15.4943C3.64494 15.4943 3.80881 15.4356 3.93793 15.3181L9.94165 9.78307L11.5704 11.217C11.6996 11.3296 11.8585 11.3834 12.0174 11.3834C12.1763 11.3834 12.3402 11.3247 12.4643 11.2121L14.1378 9.73413L20.1068 15.323C20.2359 15.4454 20.4047 15.5041 20.5686 15.5041C20.7474 15.5041 20.9212 15.4356 21.0552 15.2986C21.3085 15.0343 21.2986 14.6134 21.0304 14.3638L15.1359 8.84833Z" fill="#CC6666"/>
</svg>
