<svg width="36" height="47" viewBox="0 0 36 47" fill="none" xmlns="http://www.w3.org/2000/svg">
<path d="M25.5223 0H1.22484C0.548372 0 0 0.549732 0 1.61646V46.1607C0 46.4503 0.548372 47 1.22484 47H34.7752C35.4516 47 36 46.4503 36 46.1607V10.8923C36 10.3081 35.9221 10.1201 35.7848 9.98162L26.0431 0.215696C25.9049 0.0780536 25.7174 0 25.5223 0Z" fill="#E9E9E0"/>
<path d="M25.9535 0.126465V10.0712H35.8736L25.9535 0.126465Z" fill="#D9D7CA"/>
<path d="M10.8955 27.9684C10.6041 27.9684 10.3245 27.8736 10.0859 27.6948C9.21435 27.0393 9.09714 26.31 9.1524 25.8131C9.30477 24.4468 10.9901 23.0166 14.1631 21.5596C15.4223 18.7934 16.6203 15.385 17.3344 12.5373C16.4989 10.7144 15.6868 8.34928 16.2787 6.96194C16.4864 6.47599 16.745 6.10335 17.2281 5.94221C17.419 5.87842 17.9012 5.79785 18.0787 5.79785C18.5007 5.79785 18.8716 6.34255 19.1344 6.67826C19.3814 6.99383 19.9415 7.66274 18.8222 12.3871C19.9507 14.7237 21.5498 17.1039 23.0819 18.7338C24.1795 18.5349 25.1238 18.4333 25.8932 18.4333C27.2043 18.4333 27.9988 18.7396 28.3228 19.3708C28.5907 19.8928 28.481 20.503 27.9963 21.1836C27.53 21.8374 26.887 22.1832 26.1377 22.1832C25.1197 22.1832 23.9342 21.5387 22.6122 20.2655C20.237 20.7632 17.4634 21.6511 15.2213 22.6339C14.5214 24.1228 13.8508 25.3222 13.2263 26.2017C12.3681 27.4061 11.628 27.9684 10.8955 27.9684ZM13.1241 23.6662C11.335 24.6742 10.6058 25.5026 10.553 25.9692C10.5447 26.0465 10.5221 26.2496 10.9139 26.55C11.0386 26.5106 11.767 26.1774 13.1241 23.6662ZM24.5411 19.9381C25.2235 20.4644 25.3901 20.7304 25.8363 20.7304C26.0322 20.7304 26.5906 20.722 26.8493 20.3603C26.9741 20.1849 27.0226 20.0724 27.0419 20.012C26.9389 19.9574 26.8024 19.8467 26.0582 19.8467C25.6354 19.8475 25.1037 19.866 24.5411 19.9381ZM18.2872 14.414C17.6886 16.4904 16.8983 18.7321 16.0485 20.7623C17.7983 20.0817 19.7004 19.4874 21.487 19.067C20.3568 17.751 19.2274 16.1076 18.2872 14.414ZM17.779 7.31192C17.697 7.33962 16.6655 8.78655 17.8594 10.0111C18.6539 8.23598 17.815 7.30017 17.779 7.31192Z" fill="#CC4B4C"/>
<path d="M34.7752 47H1.22484C0.548372 47 0 46.4503 0 45.7722V32.7322H36V45.7722C36 46.4503 35.4516 47 34.7752 47Z" fill="#CC4B4C"/>
<path d="M9.113 44.4823H7.73914V36.0256H10.1654C10.5237 36.0256 10.8787 36.0827 11.2295 36.1977C11.5803 36.3127 11.895 36.4847 12.1738 36.7138C12.4526 36.943 12.6778 37.2208 12.8495 37.5456C13.0211 37.8704 13.1073 38.2355 13.1073 38.6417C13.1073 39.0706 13.0345 39.4583 12.8896 39.8066C12.7448 40.1549 12.5422 40.4478 12.2827 40.6845C12.0231 40.9212 11.71 41.105 11.3442 41.2351C10.9783 41.3652 10.5731 41.4298 10.131 41.4298H9.11216V44.4823H9.113ZM9.113 37.0697V40.4201H10.3722C10.5396 40.4201 10.7054 40.3916 10.8703 40.3337C11.0344 40.2766 11.1851 40.1826 11.3224 40.0525C11.4597 39.9224 11.5702 39.7412 11.6539 39.5078C11.7376 39.2745 11.7795 38.9858 11.7795 38.6417C11.7795 38.504 11.7603 38.3446 11.7226 38.1658C11.6841 37.9862 11.6062 37.8142 11.4882 37.6497C11.3693 37.4852 11.2035 37.3475 10.99 37.2367C10.7765 37.1259 10.4936 37.0705 10.1428 37.0705H9.113V37.0697Z" fill="white"/>
<path d="M21.5321 40.019C21.5321 40.7147 21.4576 41.3098 21.3086 41.8033C21.1596 42.2968 20.9712 42.7097 20.7418 43.0429C20.5124 43.3761 20.2554 43.638 19.9691 43.8293C19.6827 44.0207 19.4065 44.1634 19.1394 44.2599C18.8723 44.3555 18.6279 44.4168 18.4068 44.4437C18.1858 44.4688 18.0217 44.4823 17.9146 44.4823H14.7214V36.0256H17.2624C17.9723 36.0256 18.596 36.1389 19.1335 36.3639C19.671 36.5888 20.1181 36.8901 20.4731 37.2644C20.828 37.6387 21.0926 38.0659 21.2684 38.5435C21.4442 39.0219 21.5321 39.5137 21.5321 40.019ZM17.4574 43.4726C18.3884 43.4726 19.0599 43.1747 19.4718 42.5779C19.8837 41.9812 20.0896 41.1167 20.0896 39.9845C20.0896 39.6329 20.0478 39.2846 19.964 38.9405C19.8795 38.5964 19.7179 38.285 19.4776 38.0055C19.2373 37.726 18.9108 37.5003 18.4989 37.3282C18.087 37.1562 17.5529 37.0697 16.8965 37.0697H16.0953V43.4726H17.4574Z" fill="white"/>
<path d="M24.9204 37.0697V39.7319H28.4459V40.6728H24.9204V44.4823H23.5239V36.0256H28.8V37.0697H24.9204Z" fill="white"/>
</svg>
