<svg width="24" height="19" viewBox="0 0 24 19" fill="none" xmlns="http://www.w3.org/2000/svg">
<path d="M21.0701 0H2.93482C1.31595 0 0 1.36895 0 3.05302V15.947C0 17.6311 1.31595 19 2.93482 19H21.0652C22.684 19 24 17.6311 24 15.947V3.05818C24.005 1.37412 22.689 0 21.0701 0ZM22.6642 15.947C22.6642 16.8613 21.9491 17.6052 21.0701 17.6052H2.93482C2.05587 17.6052 1.34078 16.8613 1.34078 15.947V3.05818C1.34078 2.14383 2.05587 1.39995 2.93482 1.39995H21.0652C21.9441 1.39995 22.6592 2.14383 22.6592 3.05818V15.947H22.6642Z" fill="#979797"/>
<path d="M15.1359 9.33974L21.0056 3.86394C21.2787 3.60564 21.3035 3.16654 21.0552 2.87726C20.8069 2.59314 20.3848 2.56731 20.1067 2.8256L12.0124 10.3832L10.4332 8.91614C10.4283 8.91097 10.4233 8.90581 10.4233 8.90064C10.3885 8.86448 10.3538 8.83348 10.3141 8.80249L3.88824 2.82043C3.61015 2.56214 3.18805 2.58797 2.93976 2.87726C2.69147 3.16654 2.71629 3.60564 2.99438 3.86394L8.93355 9.38623L3.01921 15.1462C2.75106 15.4096 2.73616 15.8487 2.98942 16.1328C3.1235 16.2775 3.30227 16.355 3.48104 16.355C3.64491 16.355 3.80878 16.293 3.9379 16.169L9.94162 10.3264L11.5704 11.84C11.6995 11.9588 11.8584 12.0156 12.0174 12.0156C12.1763 12.0156 12.3401 11.9537 12.4643 11.8348L14.1378 10.2748L20.1067 16.1742C20.2358 16.3033 20.4047 16.3653 20.5686 16.3653C20.7473 16.3653 20.9211 16.293 21.0552 16.1483C21.3085 15.8694 21.2985 15.4251 21.0304 15.1617L15.1359 9.33974Z" fill="#979797"/>
</svg>
